<?xml version="1.0" encoding="UTF-8"?>
<svg id="Layer_2" data-name="Layer 2" xmlns="http://www.w3.org/2000/svg" viewBox="0 0 111.37 128.5">
  <defs>
    <style>
      .cls-1, .cls-2, .cls-3, .cls-4 {
        stroke-width: 0px;
      }

      .cls-2 {
        fill: #070707;
      }

      .cls-3 {
        fill: #fefefe;
      }

      .cls-4 {
        fill: #010101;
      }
    </style>
  </defs>
  <g id="Layer_1-2" data-name="Layer 1">
    <g>
      <g>
        <circle class="cls-4" cx="54.5" cy="54.5" r="54.5"/>
        <path class="cls-3" d="m49.83,51.37c-1.77,6.25-3.46,11.8-4.87,17.41-.6,2.38-1.85,1.87-3.3,1.27-3.75-1.58-7.01-3.89-9.48-7.13-1.83-2.39-3.21-2.88-5.41-.29-4.44,5.23-10.56,7.91-16.72,10.53-2.72,1.16-3.46.11-4.12-2.21C.34,51.45,3.85,33.8,17.98,19.17,32.33,4.32,50.19-.12,69.76,6.28c19.36,6.33,30.61,20.45,34.37,40.46,1.25,6.64.88,13.26-.66,19.82-1.56,6.63-6.14,9.51-12.91,7.98-6.65-1.5-11.78-5.42-15.7-10.8-2.21-3.03-3.65-3.06-6-.16-3.82,4.71-9.07,7.16-15,8.22-2.68.48-4.12.22-3.19-3.2,1.32-4.83,2.78-9.59,4.49-14.28.9-2.47,1.93-2.98,4.36-1.57,4.24,2.46,8.92,3.68,13.89,3.34,3.39-.23,6.56-1.24,9.33-3.22,4.3-3.08,7.37-7.07,6.42-12.62-.9-5.31-5.52-6.61-9.96-7.76-1.1-.29-2.23-.46-3.47-.71,1.19-3.12,2.67-5.92,2.47-9.25-.31-5.25-3.8-10.36-8.94-12.17-5.26-1.85-10.46-1.41-14.26,2.9-2.19,2.49-3.01,2.75-5.99.72-.54-.37-8.02-4.97-12.02.03-2.56,3.2-1.89,7.46,1.51,11.14.78.84,1.65,1.59,2.55,2.46-3.06,2.52-6.18,4.75-8.88,7.4-3.37,3.3-5.56,7.43-3.74,12.17,1.74,4.52,6.23,5.05,10.43,5.52,3.51.39,6.94-.3,10.96-1.32Z"/>
        <path class="cls-4" d="m98.99,78c-9.47,23.1-39.44,34.57-63.62,24.72-10.69-4.35-18.92-11.57-24.89-21.47-1.58-2.62-1.57-3.86,1.66-4.88,5.6-1.76,10.77-4.52,15-8.67,1.76-1.72,2.71-1.36,4.45.11,12.52,10.59,25.67,10.78,37.86.44,2.18-1.85,2.98-1.28,4.63.41,6.64,6.81,14.19,11.6,24.91,9.34Z"/>
        <path class="cls-3" d="m73.93,35.76c4.07.24,10.03.26,11.61,5.46,1.04,3.41-3.3,8.48-8.16,10.15-6.94,2.38-13.25.34-18.82-3.66-3.04-2.18-5.58-2.28-8.69-.78-4.33,2.09-8.93,2.66-13.61,1.59-4.7-1.07-5.84-3.93-3.33-8.12,2.38-3.97,6.13-6.45,9.92-8.91,4.36-2.82,4.39-4.04.47-7.27-1.02-.84-2.04-1.73-2.86-2.75-1.2-1.5-1.85-3.2-.59-5.03,1.46-2.12,3.25-1.18,4.84-.3,2.32,1.28,4.58,2.7,6.77,4.2,2.17,1.49,3.3,1.2,4.5-1.35,2.6-5.53,7.61-7.24,12.69-4.74,5.2,2.56,7.44,8.26,4.58,13.5-1.23,2.26-4.23,6.26-3.23,7.26s3.17.72,3.93.76Z"/>
        <path class="cls-2" d="m62.5,31.02c-.09,3.67-2.18,5.55-5.59,5.76-3.43.21-5.92-1.36-6.02-5.09-.1-3.76,2.12-6.02,5.76-6.15,3.46-.12,5.47,1.99,5.85,5.48Z"/>
      </g>
      <g>
        <path class="cls-1" d="m1.22,117.94c0-.71.12-1.33.37-1.84.24-.51.58-.93,1-1.26.42-.33.91-.57,1.48-.72.57-.15,1.17-.23,1.82-.23,1.04,0,1.8.14,2.29.41.49.27.73.74.73,1.4,0,.28-.06.53-.18.76-.12.22-.25.39-.39.5-.27-.07-.54-.13-.83-.18-.29-.05-.62-.07-1-.07-.6,0-1.07.1-1.41.3-.34.2-.5.56-.5,1.06v.67h3.44c.08.15.16.35.24.58.08.23.12.49.12.77,0,.49-.11.84-.33,1.06s-.51.33-.87.33h-2.42v6.66c-.14.04-.36.08-.66.13-.3.04-.61.06-.93.06s-.58-.02-.83-.06-.45-.13-.62-.25-.3-.3-.39-.51c-.09-.22-.14-.5-.14-.85v-8.69Z"/>
        <path class="cls-1" d="m13.36,128.12c-.14.04-.36.08-.66.13-.3.04-.61.06-.93.06s-.58-.02-.83-.06-.45-.13-.62-.25-.3-.3-.39-.51c-.09-.22-.14-.5-.14-.85v-6.3c0-.32.06-.6.18-.83.12-.23.29-.44.51-.62.22-.18.5-.35.83-.49s.68-.28,1.06-.39c.38-.11.77-.2,1.18-.26.41-.06.81-.09,1.22-.09.67,0,1.2.13,1.6.39.39.26.59.68.59,1.27,0,.2-.03.39-.08.58-.06.19-.13.36-.21.51-.29,0-.6.01-.9.04-.31.03-.61.07-.9.13-.29.06-.57.12-.83.18-.26.06-.48.14-.66.22v7.16Z"/>
        <path class="cls-1" d="m23.42,128.48c-.83,0-1.59-.12-2.3-.35-.71-.23-1.32-.58-1.85-1.04-.52-.46-.94-1.04-1.24-1.74-.3-.7-.45-1.52-.45-2.46s.15-1.72.45-2.38c.3-.67.7-1.21,1.19-1.64.49-.43,1.05-.74,1.68-.94.63-.2,1.27-.3,1.93-.3.74,0,1.42.11,2.03.34.61.22,1.13.53,1.57.92.44.39.78.86,1.03,1.41.24.55.37,1.14.37,1.79,0,.48-.13.84-.4,1.09-.27.25-.64.41-1.11.48l-5.19.78c.15.46.47.81.94,1.04.48.23,1.02.35,1.64.35.57,0,1.12-.07,1.63-.22.51-.15.93-.32,1.25-.51.22.14.41.34.57.59.15.25.23.52.23.8,0,.63-.29,1.1-.88,1.41-.45.24-.95.4-1.51.48s-1.08.13-1.58.13Zm-.59-8.25c-.34,0-.63.06-.87.17-.25.11-.44.26-.6.43-.15.18-.27.37-.35.59-.08.22-.12.44-.14.66l3.59-.59c-.04-.28-.2-.56-.46-.84-.27-.28-.66-.42-1.18-.42Z"/>
        <path class="cls-1" d="m38.16,125.1c0,1.06-.4,1.9-1.2,2.5-.8.6-1.97.9-3.53.9-.59,0-1.13-.04-1.64-.13s-.93-.21-1.29-.39c-.36-.17-.64-.4-.84-.66-.2-.27-.3-.58-.3-.95,0-.34.07-.62.21-.85.14-.23.31-.42.5-.58.41.22.87.42,1.4.6.52.17,1.13.26,1.82.26.43,0,.77-.06,1-.19s.35-.29.35-.5c0-.2-.08-.35-.25-.46s-.45-.2-.84-.27l-.63-.13c-1.22-.24-2.12-.61-2.72-1.12-.6-.51-.89-1.24-.89-2.19,0-.52.11-.99.34-1.41s.54-.77.95-1.05c.41-.28.89-.5,1.46-.65.57-.15,1.19-.23,1.88-.23.52,0,1,.04,1.46.12.46.08.85.19,1.19.35.34.15.6.35.8.6.2.25.29.54.29.87s-.06.6-.18.83c-.12.23-.27.42-.45.58-.11-.07-.28-.14-.5-.22-.22-.08-.47-.15-.73-.21-.27-.06-.54-.12-.81-.16s-.52-.06-.75-.06c-.46,0-.82.05-1.07.16s-.38.27-.38.49c0,.15.07.28.21.38.14.1.41.19.8.27l.65.15c1.34.31,2.3.73,2.87,1.27s.85,1.24.85,2.09Z"/>
        <path class="cls-1" d="m49.96,128.12c-.14.04-.36.08-.66.13-.3.04-.61.06-.93.06s-.58-.02-.83-.06c-.25-.04-.45-.13-.62-.25s-.3-.3-.39-.51c-.09-.22-.14-.5-.14-.85v-4.66c0-.57-.14-.98-.43-1.21s-.64-.35-1.06-.35c-.28,0-.55.04-.8.1-.25.07-.46.15-.61.25v7.35c-.14.04-.36.08-.66.13-.3.04-.61.06-.93.06s-.58-.02-.83-.06-.45-.13-.62-.25-.3-.3-.39-.51c-.09-.22-.14-.5-.14-.85v-12.18c.15-.03.38-.07.68-.12.3-.05.61-.07.91-.07s.58.02.83.06c.24.04.45.13.62.25s.3.3.39.51c.09.22.14.5.14.85v2.06c.18-.07.46-.15.83-.24.37-.09.78-.14,1.23-.14,1.39,0,2.47.35,3.24,1.04.78.69,1.17,1.73,1.17,3.1v6.36Z"/>
        <path class="cls-1" d="m62.19,127.83c-.2.17-.46.3-.8.41-.34.1-.73.16-1.2.16-.57,0-1.07-.08-1.49-.24-.42-.16-.7-.39-.84-.68-.15-.34-.33-.87-.54-1.6-.2-.73-.4-1.53-.6-2.39-.2-.87-.38-1.75-.56-2.65-.18-.9-.31-1.69-.41-2.37.2-.2.46-.37.79-.51.33-.15.69-.22,1.08-.22.49,0,.89.11,1.21.33s.51.59.58,1.12c.14,1.06.26,1.94.36,2.64.1.69.18,1.26.24,1.7s.11.78.15,1.01.07.42.09.56h.08c.04-.22.12-.55.22-.98.1-.43.23-.91.37-1.46.14-.55.29-1.14.44-1.77.15-.64.31-1.27.46-1.9.28-.15.56-.27.83-.36s.61-.13,1.02-.13c.49,0,.91.08,1.26.23.35.15.57.39.67.71.17.62.33,1.21.48,1.8.15.58.29,1.12.42,1.62.13.5.24.94.34,1.32.1.39.17.69.21.91h.11c.15-1.08.3-2.2.45-3.36s.28-2.35.41-3.55c.25-.15.52-.27.8-.34.28-.07.56-.1.84-.1.49,0,.9.1,1.22.31.32.21.48.57.48,1.09,0,.22-.04.56-.1,1.01-.07.45-.16.95-.27,1.51-.11.56-.24,1.15-.39,1.76-.15.62-.29,1.21-.44,1.79-.15.57-.29,1.09-.42,1.55-.13.46-.25.82-.35,1.07-.2.17-.5.3-.9.41-.41.1-.84.16-1.3.16-1.18,0-1.87-.29-2.08-.88-.08-.25-.19-.57-.31-.96-.13-.38-.26-.81-.4-1.27-.14-.46-.27-.94-.4-1.44s-.23-.98-.31-1.44c-.1.49-.22,1-.36,1.52-.14.52-.28,1.04-.43,1.53-.15.5-.28.95-.41,1.37-.13.41-.22.75-.29,1Z"/>
        <path class="cls-1" d="m77.18,117.62c.76,0,1.45.08,2.07.23.62.15,1.16.39,1.6.7s.78.71,1.02,1.2c.24.48.36,1.05.36,1.71v4.7c0,.36-.1.66-.3.89s-.44.43-.72.6c-.91.55-2.19.82-3.84.82-.74,0-1.41-.07-2.01-.21-.6-.14-1.11-.35-1.53-.63-.43-.28-.76-.64-.99-1.07-.23-.43-.35-.94-.35-1.51,0-.97.29-1.71.86-2.23.57-.52,1.46-.84,2.67-.97l2.75-.29v-.15c0-.41-.18-.7-.54-.87-.36-.18-.87-.26-1.54-.26-.53,0-1.05.06-1.55.17-.5.11-.96.25-1.36.42-.18-.13-.34-.32-.46-.58-.13-.26-.19-.53-.19-.81,0-.36.09-.65.26-.87.17-.22.44-.4.81-.56.41-.15.89-.27,1.44-.34.55-.07,1.07-.1,1.56-.1Zm.17,8.25c.24,0,.5-.02.79-.07.29-.05.5-.12.64-.2v-1.68l-1.51.13c-.39.03-.71.11-.97.25-.25.14-.38.35-.38.63s.11.51.33.68c.22.17.58.26,1.1.26Z"/>
        <path class="cls-1" d="m87.97,124.64c0,.36.12.62.35.78.23.15.56.23.98.23.21,0,.43-.02.65-.05.22-.04.42-.08.59-.14.13.15.23.33.33.51.09.19.14.42.14.68,0,.53-.2.97-.6,1.3s-1.1.5-2.11.5c-1.23,0-2.18-.28-2.85-.84-.67-.56-1-1.47-1-2.73v-8.99c.15-.04.37-.09.66-.14.29-.05.59-.07.91-.07.62,0,1.1.11,1.44.33.34.22.51.68.51,1.38v1.34h2.75c.08.15.16.35.24.58s.12.49.12.77c0,.49-.11.84-.33,1.06-.22.22-.51.33-.87.33h-1.91v3.17Z"/>
        <path class="cls-1" d="m98.07,128.48c-.83,0-1.59-.12-2.3-.35-.71-.23-1.32-.58-1.85-1.04-.52-.46-.94-1.04-1.24-1.74-.3-.7-.45-1.52-.45-2.46s.15-1.72.45-2.38c.3-.67.7-1.21,1.19-1.64.49-.43,1.05-.74,1.68-.94.63-.2,1.27-.3,1.93-.3.74,0,1.42.11,2.03.34.61.22,1.13.53,1.57.92.44.39.78.86,1.03,1.41.24.55.37,1.14.37,1.79,0,.48-.13.84-.4,1.09-.27.25-.64.41-1.11.48l-5.19.78c.15.46.47.81.94,1.04.48.23,1.02.35,1.64.35.57,0,1.12-.07,1.63-.22.51-.15.93-.32,1.25-.51.22.14.41.34.57.59.15.25.23.52.23.8,0,.63-.29,1.1-.88,1.41-.45.24-.95.4-1.51.48s-1.08.13-1.58.13Zm-.59-8.25c-.34,0-.63.06-.87.17-.25.11-.44.26-.6.43-.15.18-.27.37-.35.59-.08.22-.12.44-.14.66l3.59-.59c-.04-.28-.2-.56-.46-.84-.27-.28-.66-.42-1.18-.42Z"/>
        <path class="cls-1" d="m107.78,128.12c-.14.04-.36.08-.66.13-.3.04-.61.06-.93.06s-.58-.02-.83-.06-.45-.13-.62-.25-.3-.3-.39-.51c-.09-.22-.14-.5-.14-.85v-6.3c0-.32.06-.6.18-.83.12-.23.29-.44.51-.62.22-.18.5-.35.83-.49s.68-.28,1.06-.39c.38-.11.77-.2,1.18-.26.41-.06.81-.09,1.22-.09.67,0,1.2.13,1.6.39.39.26.59.68.59,1.27,0,.2-.03.39-.08.58-.06.19-.13.36-.21.51-.29,0-.6.01-.9.04-.31.03-.61.07-.9.13-.29.06-.57.12-.83.18-.26.06-.48.14-.66.22v7.16Z"/>
      </g>
    </g>
  </g>
</svg>